<svg xmlns="http://www.w3.org/2000/svg" width="800" height="500" viewBox="0 0 800 500" role="img" aria-label="Soporte técnico remoto: un técnico conectado a la computadora del cliente">
<defs>
  <linearGradient id="bg" x1="0" y1="0" x2="1" y2="1"><stop offset="0" stop-color="#15121f"/><stop offset="1" stop-color="#070709"/></linearGradient>
  <linearGradient id="marca" x1="0" y1="0" x2="1" y2="1"><stop offset="0" stop-color="#667eea"/><stop offset="1" stop-color="#764ba2"/></linearGradient>
  <radialGradient id="halo" cx="0.8" cy="0.2" r="0.7"><stop offset="0" stop-color="#b794f4" stop-opacity="0.35"/><stop offset="1" stop-color="#b794f4" stop-opacity="0"/></radialGradient>
</defs>
<rect width="800" height="500" fill="url(#bg)"/>
<rect width="800" height="500" fill="url(#halo)"/>
<!-- monitor del cliente -->
<rect x="90" y="90" width="420" height="270" rx="14" fill="#111118" stroke="#2a2a34"/>
<rect x="104" y="104" width="392" height="242" rx="8" fill="#0d0d12"/>
<rect x="270" y="360" width="60" height="26" fill="#1c1c24"/><rect x="220" y="386" width="160" height="10" rx="5" fill="#1c1c24"/>
<!-- ventana de sesión remota -->
<rect x="130" y="128" width="340" height="196" rx="8" fill="#17171f" stroke="#3b3466"/>
<rect x="130" y="128" width="340" height="30" rx="8" fill="#1e1b2e"/><rect x="130" y="150" width="340" height="8" fill="#1e1b2e"/>
<circle cx="148" cy="143" r="5" fill="#22c55e"/>
<text x="162" y="147" font-family="Inter, Arial, sans-serif" font-size="11" font-weight="700" fill="#e5e5e5">Sesión remota · conectado con JJSoluciones</text>
<rect x="150" y="176" width="200" height="10" rx="5" fill="#2a2a34"/><rect x="150" y="196" width="260" height="10" rx="5" fill="#2a2a34"/><rect x="150" y="216" width="160" height="10" rx="5" fill="#2a2a34"/>
<rect x="150" y="250" width="120" height="34" rx="8" fill="url(#marca)"/><text x="210" y="272" font-family="Inter, Arial, sans-serif" font-size="12" font-weight="700" fill="#fff" text-anchor="middle">Reparando…</text>
<rect x="286" y="250" width="160" height="34" rx="8" fill="#2a2a34"/>
<rect x="296" y="262" width="100" height="10" rx="5" fill="#b794f4"/><rect x="396" y="262" width="40" height="10" rx="5" fill="#3b3466"/>
<!-- cursor remoto -->
<polygon points="392,238 392,262 398,256 404,268 410,265 404,253 412,253" fill="#b794f4" stroke="#fff" stroke-width="1.5"/>
<!-- línea de conexión -->
<path d="M510 225 C 570 225, 570 250, 630 250" fill="none" stroke="#b794f4" stroke-width="3" stroke-dasharray="8 8" stroke-linecap="round">
  <animate attributeName="stroke-dashoffset" from="32" to="0" dur="1.2s" repeatCount="indefinite"/>
</path>
<!-- técnico (auriculares + laptop) -->
<circle cx="680" cy="210" r="34" fill="#2a2a34"/>
<path d="M646 210 a34 34 0 0 1 68 0" fill="none" stroke="#b794f4" stroke-width="8" stroke-linecap="round"/>
<rect x="640" y="200" width="12" height="22" rx="6" fill="#b794f4"/><rect x="708" y="200" width="12" height="22" rx="6" fill="#b794f4"/>
<path d="M714 222 q0 22 -22 22" fill="none" stroke="#b794f4" stroke-width="4" stroke-linecap="round"/><circle cx="690" cy="244" r="4" fill="#b794f4"/>
<circle cx="668" cy="206" r="4" fill="#e5e5e5"/><circle cx="692" cy="206" r="4" fill="#e5e5e5"/>
<path d="M668 224 q12 10 24 0" fill="none" stroke="#e5e5e5" stroke-width="3" stroke-linecap="round"/>
<rect x="612" y="262" width="136" height="80" rx="10" fill="#111118" stroke="#2a2a34"/>
<rect x="624" y="274" width="112" height="56" rx="4" fill="#17171f"/>
<rect x="600" y="342" width="160" height="10" rx="5" fill="#1c1c24"/>
<!-- texto -->
<text x="400" y="430" font-family="Inter, Arial, sans-serif" font-size="16" font-weight="700" fill="#e5e5e5" text-anchor="middle">Sin salir de tu casa</text>
<text x="400" y="452" font-family="Inter, Arial, sans-serif" font-size="12" fill="#9ca3af" text-anchor="middle">Vos ves todo lo que hacemos en tu pantalla, en tiempo real</text>
</svg>